<?xml version="1.0" encoding="utf-8"?>
<!-- Generator: Adobe Illustrator 22.0.0, SVG Export Plug-In . SVG Version: 6.00 Build 0)  -->
<svg version="1.2" baseProfile="tiny" id="Layer_1" xmlns="http://www.w3.org/2000/svg" xmlns:xlink="http://www.w3.org/1999/xlink"
	 x="0px" y="0px" viewBox="0 0 55.3 63.9" xml:space="preserve">
<title>Untitled-1</title>
<g>
	<path fill="#282829" d="M27.7-0.1L0,15.9v31.9l27.7,16l27.7-16V15.9L27.7-0.1z M51.2,45.4L27.7,59L4.1,45.4V18.3L27.7,4.7
		l23.5,13.6V45.4z"/>
	<path fill="#282829" d="M39.5,21.1L39.5,21.1l-0.2-0.2c-2.8-3-6.7-4.9-11.1-5l-0.3,0h-0.5l-0.3,0c-4.4,0.1-8.3,2.1-11.1,5L16,21
		c-2.6,2.8-4.3,6.6-4.3,10.8c0,4,1.5,7.7,4,10.6l0,0.1c2.8,3.2,6.9,5.2,11.4,5.3l0.3,0c0.1,0,0.2,0,0.3,0c0.1,0,0.2,0,0.2,0l0.3,0
		c4.5-0.2,8.5-2.2,11.4-5.3l0.1-0.1l0,0c2.5-2.8,4-6.5,4-10.5C43.6,27.7,42,24,39.5,21.1z M28.8,23.8v-4.3c1.1,1.2,2.1,2.5,2.9,3.9
		C30.8,23.5,29.8,23.7,28.8,23.8z M28.8,30.7l0-4.6c1.3-0.1,2.6-0.3,3.9-0.6c0.6,1.6,1,3.4,1.1,5.2H28.8z M41.2,30.7h-5
		c-0.1-2-0.5-4-1.2-5.9c1.1-0.4,2.2-1,3.2-1.6C39.9,25.3,41,27.8,41.2,30.7z M36.5,21.5c-0.8,0.4-1.6,0.8-2.4,1.2
		c-0.7-1.4-1.6-2.7-2.6-3.9C33.3,19.3,35,20.2,36.5,21.5z M33.8,33c-0.1,1.6-0.4,3.2-0.9,4.7c-1.3-0.4-2.7-0.6-4-0.6v-4H33.8z
		 M32,39.9c-0.8,1.6-1.9,3.1-3.1,4.4v-4.8C29.9,39.5,30.9,39.6,32,39.9z M31.4,44.9c1.1-1.3,2.1-2.8,2.8-4.3
		c0.9,0.4,1.8,0.8,2.6,1.3C35.3,43.3,33.4,44.3,31.4,44.9z M41.2,33c-0.2,2.7-1.2,5.1-2.8,7.1c-1.1-0.7-2.2-1.2-3.3-1.7
		c0.6-1.7,1-3.6,1.1-5.4H41.2z M26.5,39.4v4.8c-1.3-1.3-2.3-2.8-3.1-4.4C24.4,39.6,25.4,39.5,26.5,39.4z M18.5,41.9
		c0.8-0.5,1.7-0.9,2.6-1.3c0.7,1.5,1.7,3,2.8,4.3C21.9,44.3,20,43.3,18.5,41.9z M26.5,19.4v4.3c-1-0.1-1.9-0.2-2.9-0.4
		C24.4,21.9,25.3,20.6,26.5,19.4z M26.5,26.1v4.6h-5c0.1-1.8,0.5-3.5,1.1-5.2C23.9,25.8,25.2,26,26.5,26.1z M21.3,22.6
		c-0.8-0.3-1.7-0.7-2.4-1.2c1.5-1.2,3.2-2.2,5-2.7C22.9,20,22,21.3,21.3,22.6z M26.5,33v4c-1.4,0.1-2.7,0.3-4,0.6
		c-0.5-1.5-0.8-3.1-0.9-4.7H26.5z M20.4,24.8c-0.7,1.9-1.1,3.9-1.2,5.9h-5c0.2-2.8,1.3-5.4,3.1-7.5C18.2,23.8,19.2,24.4,20.4,24.8z
		 M19.1,33c0.1,1.9,0.5,3.7,1.1,5.4c-1.2,0.5-2.3,1-3.3,1.7c-1.5-2-2.6-4.5-2.8-7.1H19.1z"/>
</g>
</svg>
