<?xml version="1.0" encoding="utf-8"?>
<!-- Generator: Adobe Illustrator 22.0.0, SVG Export Plug-In . SVG Version: 6.00 Build 0)  -->
<svg version="1.2" baseProfile="tiny" id="Layer_1" xmlns="http://www.w3.org/2000/svg" xmlns:xlink="http://www.w3.org/1999/xlink"
	 x="0px" y="0px" viewBox="0 0 55.3 63.9" xml:space="preserve">
<title>Untitled-1</title>
<g>
	<path fill="#282829" d="M27.7-0.1L0,15.9v31.9l27.7,16l27.7-16V15.9L27.7-0.1z M51.2,45.4L27.7,59L4.1,45.4V18.3L27.7,4.7
		l23.5,13.6V45.4z"/>
	<path fill="#282829" d="M39.7,18.7L39.7,18.7l-0.2-0.2c-2.8-3.1-6.8-5-11.3-5.1h-0.3h-0.5h-0.3c-4.5,0.1-8.4,2.1-11.3,5.1v0.1
		c-2.6,2.8-4.4,6.7-4.4,11c0,4.1,1.5,7.8,4.1,10.8v0.1c2.8,3.3,7,5.3,11.6,5.4h0.3c0.1,0,0.2,0,0.3,0c0.1,0,0.2,0,0.2,0h0.3
		c4.6-0.2,8.6-2.2,11.6-5.4l0.1-0.1l0,0c2.5-2.8,4.1-6.6,4.1-10.7C43.9,25.4,42.2,21.7,39.7,18.7z M28.8,21.5v-4.4
		c1.1,1.2,2.1,2.5,3,4C30.9,21.1,29.8,21.4,28.8,21.5z M28.8,28.5v-4.7c1.3-0.1,2.6-0.3,4-0.6c0.6,1.6,1,3.5,1.1,5.3H28.8z
		 M41.4,28.5h-5.1c-0.1-2-0.5-4.1-1.2-6c1.1-0.4,2.2-1,3.3-1.6C40.1,23,41.2,25.5,41.4,28.5z M36.7,19.1c-0.8,0.4-1.6,0.8-2.4,1.2
		c-0.7-1.4-1.6-2.7-2.6-4C33.4,16.9,35.1,17.8,36.7,19.1z M33.9,30.8c-0.1,1.6-0.4,3.3-0.9,4.8c-1.3-0.4-2.7-0.6-4.1-0.6v-4.1h5
		V30.8z M32.1,37.8c-0.8,1.6-1.9,3.2-3.2,4.5v-4.9C29.9,37.4,31,37.5,32.1,37.8z M31.5,42.9c1.1-1.3,2.1-2.8,2.8-4.4
		c0.9,0.4,1.8,0.8,2.6,1.3C35.4,41.3,33.5,42.3,31.5,42.9z M41.4,30.8c-0.2,2.7-1.2,5.2-2.8,7.2c-1.1-0.7-2.2-1.2-3.4-1.7
		c0.6-1.7,1-3.7,1.1-5.5C36.3,30.8,41.4,30.8,41.4,30.8z M26.5,37.3v4.9c-1.3-1.3-2.3-2.8-3.2-4.5C24.3,37.5,25.4,37.4,26.5,37.3z
		 M18.3,39.9c0.8-0.5,1.7-0.9,2.6-1.3c0.7,1.5,1.7,3.1,2.8,4.4C21.8,42.3,19.9,41.3,18.3,39.9z M26.5,17v4.4c-1-0.1-1.9-0.2-3-0.4
		C24.3,19.5,25.3,18.2,26.5,17z M26.5,23.8v4.7h-5.1c0.1-1.8,0.5-3.6,1.1-5.3C23.8,23.5,25.2,23.7,26.5,23.8z M21.2,20.2
		c-0.8-0.3-1.7-0.7-2.4-1.2c1.5-1.2,3.3-2.2,5.1-2.7C22.8,17.6,21.9,18.9,21.2,20.2z M26.5,30.8v4.1c-1.4,0.1-2.7,0.3-4.1,0.6
		c-0.5-1.5-0.8-3.2-0.9-4.8h5V30.8z M20.3,22.5c-0.7,1.9-1.1,4-1.2,6H14c0.2-2.8,1.3-5.5,3.2-7.6C18,21.5,19.1,22.1,20.3,22.5z
		 M19,30.8c0.1,1.9,0.5,3.8,1.1,5.5c-1.2,0.5-2.3,1-3.4,1.7c-1.5-2-2.6-4.6-2.8-7.2C13.9,30.8,19,30.8,19,30.8z"/>
	<rect x="26.6" y="36.2" fill="#282829" width="2.1" height="20"/>
	<rect x="26.5" y="9.9" fill="#282829" width="2.2" height="7.3"/>
</g>
</svg>
