<?xml version="1.0" encoding="utf-8"?>
<!-- Generator: Adobe Illustrator 22.0.0, SVG Export Plug-In . SVG Version: 6.00 Build 0)  -->
<svg version="1.2" baseProfile="tiny" id="Layer_1" xmlns="http://www.w3.org/2000/svg" xmlns:xlink="http://www.w3.org/1999/xlink"
	 x="0px" y="0px" viewBox="0 0 55.3 63.9" xml:space="preserve">
<title>Untitled-1</title>
<g>
	<g>
		<path fill="#282829" d="M39.9,19.7c-3.3-3.3-7.7-5.1-12.3-5.1c-4.7,0-9,1.8-12.3,5.1C12,23,10.1,27.4,10.1,32
			c0,4.6,1.8,9,5.1,12.3c3.3,3.3,7.7,5.1,12.3,5.1c2.3,0,4.6-0.5,6.8-1.4l0.7-0.3L34,45.1l-0.3-0.7l-0.7,0.3
			c-1.7,0.7-3.5,1.1-5.4,1.1c-7.6,0-13.7-6.2-13.8-13.8c0-7.6,6.2-13.7,13.8-13.8c7.6,0,13.7,6.2,13.8,13.8c0,3.2-1.8,4.3-3.4,4.3
			c-1.6,0-3.3-1.2-3.4-4.3c0-3.9-3.2-7-7-7c-3.9,0-7,3.2-7,7c0,3.9,3.2,7,7,7c1.9,0,3.6-0.7,4.9-1.9c0.2,0.3,0.4,0.5,0.6,0.8
			c1.3,1.4,3,2.1,4.9,2.1c1.9,0,3.6-0.8,4.9-2.1c1.4-1.5,2.1-3.5,2.1-5.9C45,27.4,43.2,23,39.9,19.7z M30.9,32
			c0,1.8-1.5,3.4-3.4,3.4c-1.8,0-3.4-1.5-3.4-3.4c0-1.9,1.5-3.4,3.4-3.4C29.4,28.7,30.9,30.2,30.9,32z"/>
	</g>
	<path fill="#282829" d="M27.6,0.2L0,16.1v31.8l27.6,15.9l27.6-15.9V16.1L27.6,0.2z M51,45.6L27.6,59.1L4.1,45.6V18.5L27.6,5
		L51,18.5V45.6z"/>
</g>
</svg>
