<?xml version="1.0" encoding="utf-8"?>
<!-- Generator: Adobe Illustrator 22.0.0, SVG Export Plug-In . SVG Version: 6.00 Build 0)  -->
<svg version="1.2" baseProfile="tiny" id="Layer_1" xmlns="http://www.w3.org/2000/svg" xmlns:xlink="http://www.w3.org/1999/xlink"
	 x="0px" y="0px" viewBox="0 0 55.3 63.9" xml:space="preserve">
<title>Untitled-1</title>
<g>
	<path fill="#282829" d="M27.5,0L-0.1,16v31.9l27.7,16l27.7-16V16L27.5,0z M51.1,45.5L27.5,59.1L4,45.5V18.4L27.5,4.8l23.5,13.6
		V45.5z"/>
	<path fill="#282829" d="M44.6,34.3L42.3,32c-0.4-0.4-0.9-0.6-1.5-0.6c-0.5,0-1,0.2-1.3,0.6l-1.9,1.8l-0.6,0.6v-7.5h-0.3L26.2,16.2
		l0,0L26,16h-8c-0.6,0-1.2,0.2-1.7,0.7c-0.4,0.4-0.7,1-0.7,1.7v27.2c0,1.3,1.1,2.3,2.4,2.4h10.4v-2.7h-10V18.7h5.3v8.4
		c0,1.3,1,2.4,2.4,2.4h8.4v5.1h2.4l-6.5,6.5c-0.2,0.2-0.3,0.4-0.4,0.6l-1.2,4.4c0,0.1-0.1,0.3-0.1,0.4c0,0.7,0.6,1.3,1.4,1.3h0
		c0.1,0,0.3,0,0.3,0l4.4-1.3c0.2-0.1,0.4-0.1,0.6-0.3l7.5-7.4l1.8-1.8c0.3-0.3,0.5-0.8,0.6-1.2C45.2,35.2,45,34.7,44.6,34.3z
		 M26.3,26.8v-6.6l6.5,6.6H26.3z M33.6,44.1L32,44.5l0.5-1.7l6.2-6.2l1.2,1.2L33.6,44.1z M41.8,35.9l-1.2-1.2l0.3-0.3l1.2,1.2
		L41.8,35.9z M32,35.7c0.7,0,1.2-0.6,1.2-1.2c0-0.7-0.5-1.2-1.2-1.2H20.7c-0.7,0-1.2,0.5-1.2,1.2c0,0.7,0.5,1.2,1.2,1.2H32z
		 M25.9,39.3h-5.2c-0.7,0-1.2,0.5-1.2,1.2c0,0.7,0.5,1.2,1.2,1.2h5.2c0.7,0,1.2-0.5,1.2-1.2C27.1,39.8,26.6,39.3,25.9,39.3z"/>
</g>
</svg>
