<?xml version="1.0" encoding="utf-8"?>
<!-- Generator: Adobe Illustrator 22.0.0, SVG Export Plug-In . SVG Version: 6.00 Build 0)  -->
<svg version="1.2" baseProfile="tiny" id="Layer_1" xmlns="http://www.w3.org/2000/svg" xmlns:xlink="http://www.w3.org/1999/xlink"
	 x="0px" y="0px" viewBox="0 0 55.3 63.9" xml:space="preserve">
<title>Untitled-1</title>
<g>
	<path fill="#282829" d="M27.7,0L0,16v31.9l27.7,16l27.7-16V16L27.7,0z M51.2,45.5L27.7,59.1L4.1,45.5V18.4L27.7,4.8l23.5,13.6V45.5
		z"/>
	<path fill="#282829" d="M37.7,36.4c0-0.2,0-0.3-0.1-0.5c-0.2-0.5-0.6-0.9-1.2-1l-5.1-0.8l-1.3-2.5c0.5-0.2,0.9-0.7,0.9-1.4
		c0-0.5-0.2-0.9-0.6-1.2l3.2-1.1c0.6-0.2,1-0.8,1-1.4v-9.1c0-0.8-0.7-1.5-1.5-1.5H22.2c-0.8,0-1.5,0.7-1.5,1.5v9.1
		c0,0.6,0.4,1.2,1,1.4l3.2,1.1c-0.4,0.3-0.6,0.7-0.6,1.2c0,0.6,0.4,1.1,0.9,1.4L24,34.1l-5.1,0.8c-0.6,0.1-1,0.5-1.2,1
		c0,0.1-0.1,0.3-0.1,0.5c0,0.4,0.1,0.8,0.4,1l3.7,3.7l-0.8,5.1c0,0.1,0,0.1,0,0.2c0,0.5,0.2,0.9,0.6,1.2c0.3,0.2,0.6,0.3,0.9,0.3
		c0.2,0,0.5-0.1,0.7-0.2l4.6-2.4l4.6,2.4c0.2,0.1,0.4,0.2,0.7,0.2c0.3,0,0.6-0.1,0.9-0.3c0.4-0.3,0.6-0.7,0.6-1.2c0-0.1,0-0.2,0-0.2
		l-0.8-5.2l3.7-3.7C37.6,37.1,37.7,36.7,37.7,36.4z M31.7,25.5l-4,1.3l-4-1.3v-6.6h8V25.5z M31,39.5c-0.3,0.3-0.4,0.6-0.4,1
		c0,0.1,0,0.2,0,0.3l0.5,3l-2.7-1.4c-0.2-0.1-0.4-0.2-0.7-0.2c-0.2,0-0.5,0-0.7,0.2l-2.7,1.4l0.5-3c0-0.1,0-0.2,0-0.2
		c0-0.4-0.2-0.8-0.4-1l-2.1-2.2l3-0.5c0.5-0.1,0.9-0.4,1.1-0.8l1.4-2.7l1.4,2.7c0.2,0.4,0.6,0.7,1.1,0.8l3,0.5L31,39.5L31,39.5z"/>
</g>
</svg>
