<?xml version="1.0" encoding="utf-8"?>
<!-- Generator: Adobe Illustrator 22.0.0, SVG Export Plug-In . SVG Version: 6.00 Build 0)  -->
<svg version="1.2" baseProfile="tiny" id="Layer_1" xmlns="http://www.w3.org/2000/svg" xmlns:xlink="http://www.w3.org/1999/xlink"
	 x="0px" y="0px" viewBox="0 0 55.3 63.9" xml:space="preserve">
<title>Untitled-1</title>
<g>
	<path fill="#282829" d="M27.7,0L0,16v31.9l27.7,16l27.7-16V16L27.7,0z M51.2,45.5L27.7,59.1L4.1,45.5V18.4L27.7,4.8l23.5,13.6V45.5
		z"/>
	<path fill="#282829" d="M42.4,22.1c-0.5-0.5-1.1-0.8-1.8-0.8h-6.8v-1.8c0-0.8-0.6-1.5-1.5-1.5H23c-0.8,0-1.5,0.7-1.5,1.5v1.8h-6.8
		c-0.7,0-1.3,0.3-1.8,0.8c-0.5,0.5-0.7,1.1-0.7,1.8v19.4c0,0.7,0.3,1.3,0.7,1.8c0.5,0.5,1.1,0.8,1.8,0.7h25.8c0.7,0,1.3-0.3,1.8-0.7
		c0.5-0.5,0.7-1.1,0.7-1.8V23.9C43.1,23.2,42.8,22.6,42.4,22.1z M24.5,21.4V21h6.4v0.4H24.5z M15.2,30.8h9.6
		c0.1,0.7,0.7,1.3,1.5,1.3h2.8c0.8,0,1.4-0.6,1.5-1.3h9.6v12.1h-25V30.8z M15.2,27.9v-3.5h25v3.5H15.2z"/>
</g>
</svg>
