<?xml version="1.0" encoding="utf-8"?>
<!-- Generator: Adobe Illustrator 22.0.0, SVG Export Plug-In . SVG Version: 6.00 Build 0)  -->
<svg version="1.2" baseProfile="tiny" id="Layer_1" xmlns="http://www.w3.org/2000/svg" xmlns:xlink="http://www.w3.org/1999/xlink"
	 x="0px" y="0px" viewBox="0 0 55.3 63.9" xml:space="preserve">
<title>Untitled-1</title>
<g>
	<path fill="#282829" d="M44.3,27l-16.1-8c-0.2-0.1-0.4-0.1-0.6-0.1c-0.2,0-0.4,0-0.6,0.1l-16,8c-0.4,0.2-0.7,0.6-0.7,1.1
		c0,0.5,0.3,0.9,0.7,1.1l5,2.5v5c0.1,3.9,5.3,6.4,11.6,6.4c5.2,0,9.7-1.7,11.1-4.5c0.2,0.5,0.5,0.9,0.9,1.2l-1.3,3.5
		c-0.1,0.1-0.1,0.3-0.1,0.4c0,0.2,0.1,0.5,0.2,0.7c0.2,0.3,0.6,0.5,1,0.5H43c0.4,0,0.8-0.2,1-0.5c0.1-0.2,0.2-0.5,0.2-0.7
		c0-0.2,0-0.3-0.1-0.4l-1.3-3.5c0.7-0.5,1.1-1.3,1.1-2.2c0-1.1-0.6-2-1.5-2.4v-5.1l1.8-0.9c0.4-0.2,0.7-0.6,0.7-1.1
		C45,27.7,44.7,27.2,44.3,27z M41,37.6c0-0.1,0.1-0.2,0.2-0.2h0c0.1,0,0.2,0.1,0.2,0.2c0,0.1-0.1,0.2-0.2,0.2
		C41.1,37.9,41,37.8,41,37.6z M27.5,29.4l9.3,0.8l-9.2,4.6l-13.3-6.7l13.3-6.6l13.2,6.6l-13.1-1.2c0,0,0,0-0.1,0
		c-0.6,0-1.2,0.5-1.2,1.1c0,0,0,0,0,0.1C26.4,28.8,26.9,29.3,27.5,29.4z M18.5,33l8.6,4.3c0.2,0.1,0.4,0.1,0.6,0.1
		c0.2,0,0.4,0,0.6-0.1l8.6-4.3v3.8c0,0.7-0.7,1.8-2.3,2.6c-1.8,0.9-4.2,1.4-6.8,1.4c-2.6,0-5-0.5-6.8-1.4c-1.6-0.8-2.4-1.8-2.3-2.6
		V33z M39.3,31.8l0.8-0.4l0,3.9c-0.3,0.2-0.6,0.4-0.8,0.6V31.8z"/>
	<path fill="#282829" d="M27.7,0L0,16v31.9l27.7,16l27.7-16V16L27.7,0z M51.2,45.5L27.7,59.1L4.1,45.5V18.4L27.7,4.8l23.5,13.6V45.5
		z"/>
</g>
</svg>
