<?xml version="1.0" encoding="utf-8"?>
<!-- Generator: Adobe Illustrator 22.0.0, SVG Export Plug-In . SVG Version: 6.00 Build 0)  -->
<svg version="1.2" baseProfile="tiny" id="Layer_1" xmlns="http://www.w3.org/2000/svg" xmlns:xlink="http://www.w3.org/1999/xlink"
	 x="0px" y="0px" viewBox="0 0 55.3 63.9" xml:space="preserve">
<title>Untitled-1</title>
<path fill="#333132" d="M27.6,0L0,16v31.9l27.6,16l27.7-16V16L27.6,0z M50.9,45.3L27.6,58.8L4.4,45.3V18.5L27.6,5.1l23.3,13.4V45.3z
	"/>
<path fill-rule="evenodd" fill="#333132" d="M27.7,11.6c-11.5,0-20.8,9.3-20.8,20.8c0,9.2,6,17,14.3,19.8c1,0.2,1.4-0.5,1.4-1
	c0-0.5,0-1.8,0-3.5c-5.8,1.3-7-2.8-7-2.8c-0.9-2.4-2.3-3-2.3-3c-1.9-1.3,0.1-1.3,0.1-1.3c2.1,0.1,3.2,2.1,3.2,2.1
	c1.9,3.2,4.9,2.3,6.1,1.7c0.2-1.3,0.7-2.3,1.3-2.8c-4.6-0.5-9.5-2.3-9.5-10.3c0-2.3,0.8-4.1,2.1-5.6c-0.2-0.5-0.9-2.6,0.2-5.5
	c0,0,1.8-0.6,5.7,2.1c1.7-0.5,3.4-0.7,5.2-0.7c1.8,0,3.6,0.2,5.2,0.7c4-2.7,5.7-2.1,5.7-2.1c1.1,2.9,0.4,5,0.2,5.5
	c1.3,1.5,2.1,3.3,2.1,5.6c0,8-4.9,9.8-9.5,10.3c0.7,0.6,1.4,1.9,1.4,3.9c0,2.8,0,5,0,5.7c0,0.6,0.4,1.2,1.4,1
	c8.3-2.8,14.2-10.6,14.2-19.8C48.5,20.9,39.2,11.6,27.7,11.6z"/>
</svg>
