<?xml version="1.0" encoding="utf-8"?>
<!-- Generator: Adobe Illustrator 22.0.0, SVG Export Plug-In . SVG Version: 6.00 Build 0)  -->
<svg version="1.2" baseProfile="tiny" id="Layer_1" xmlns="http://www.w3.org/2000/svg" xmlns:xlink="http://www.w3.org/1999/xlink"
	 x="0px" y="0px" viewBox="0 0 55.3 63.9" xml:space="preserve">
<title>Untitled-1</title>
<g>
	<path fill="#282829" d="M27.7,0L0,16v31.9l27.7,16l27.7-16V16L27.7,0z M50.9,45.4L27.7,58.8L4.4,45.4V18.5L27.7,5.1l23.2,13.4V45.4
		z"/>
	<path fill="#282829" d="M18.9,47.2h-6.8V26.6h6.8V47.2z M15.5,23.8L15.5,23.8c-2.3,0-3.8-1.6-3.8-3.6c0-2,1.5-3.6,3.9-3.6
		c2.3,0,3.8,1.5,3.8,3.6C19.4,22.2,17.9,23.8,15.5,23.8z M43.6,47.2h-6.8v-11c0-2.8-1-4.7-3.5-4.7c-1.9,0-3,1.3-3.5,2.5
		c-0.2,0.4-0.2,1.1-0.2,1.7v11.5h-6.8c0,0,0.1-18.7,0-20.6h6.8v2.9c0.9-1.4,2.5-3.4,6.2-3.4c4.5,0,7.9,2.9,7.9,9.3V47.2z"/>
</g>
</svg>
