<?xml version="1.0" encoding="utf-8"?>
<!-- Generator: Adobe Illustrator 22.0.0, SVG Export Plug-In . SVG Version: 6.00 Build 0)  -->
<svg version="1.2" baseProfile="tiny" id="Layer_1" xmlns="http://www.w3.org/2000/svg" xmlns:xlink="http://www.w3.org/1999/xlink"
	 x="0px" y="0px" viewBox="0 0 55.3 63.9" xml:space="preserve">
<title>Untitled-1</title>
<g>
	<g>
		<path fill="#282829" d="M45.1,23.6c0-2.8-2.2-5-5-5h-25c-2.8,0-5,2.2-5,5v17.1c0,2.8,2.2,5,5,5h25c2.8,0,5-2.2,5-5L45.1,23.6
			L45.1,23.6z M27.7,32l-1.5-1.4l0.1,0.1L26,30.5l-8.8-7.9c-0.1-0.1-0.2-0.1-0.3-0.2h21.7c-0.1,0.1-0.2,0.1-0.3,0.2L27.7,32z
			 M30.6,34.5l7.6,7.2c0.1,0.1,0.2,0.1,0.3,0.2H16.9c0.1-0.1,0.2-0.1,0.3-0.2l7.6-7.1l1.6,1.4c0.4,0.3,0.8,0.5,1.3,0.5
			c0.5,0,0.9-0.2,1.3-0.5L30.6,34.5z M14,40.7v-17c0-0.4,0.3-0.8,0.6-1c0,0-0.1,0.1-0.1,0.1C14.1,23.1,14,23.5,14,24
			c0,0.5,0.2,1,0.6,1.4L22,32l-7.4,6.9c-0.4,0.4-0.6,0.9-0.6,1.4c0,0.4,0.2,1,0.5,1.3c0,0,0.1,0.1,0.1,0.1
			C14.3,41.5,14,41.1,14,40.7z M41.4,40.8c0,0.4-0.3,0.7-0.6,0.8c0,0,0,0,0,0c0.4-0.4,0.5-0.9,0.5-1.3c0-0.5-0.2-1-0.6-1.3l-7.4-7
			l7.3-6.5c0.4-0.4,0.6-0.9,0.6-1.4c0-0.5-0.2-0.9-0.5-1.3c0,0-0.1-0.1-0.1-0.1c0.4,0.2,0.6,0.5,0.7,1V40.8z"/>
	</g>
	<path fill="#282829" d="M27.7,0.2L0,16.2v31.9l27.7,16l27.7-16V16.2L27.7,0.2z M51.2,45.7L27.7,59.3L4.1,45.7V18.6L27.7,5
		l23.5,13.6V45.7z"/>
</g>
</svg>
