<svg xmlns="http://www.w3.org/2000/svg" viewBox="0 0 55.4 64"><path d="M38.1 35.3c-.9-.8-2-1.3-3.1-1.3-1.2 0-2.3.5-3.1 1.4L30.2 37c-.2-.1-.4-.2-.5-.3-2-1.3-3.8-2.9-5.5-5-.6-.8-1.1-1.5-1.5-2.1l1.1-1.1.6-.6c.9-.9 1.4-2 1.4-3.1s-.5-2.2-1.4-3.1l-1.9-1.9-.6-.6-1.4-1.4c-.8-.8-1.9-1.3-3-1.3s-2.2.5-3.1 1.3L12 20.2c-1.1 1-1.7 2.4-1.8 3.8v.8c0 2 .6 3.7 1 4.9 1.2 3.2 3 6.1 5.5 9.2 3.1 3.8 7 6.7 11.3 8.8 1.6.8 3.9 1.7 6.5 1.9h.6c1.8 0 3.5-.7 4.7-2.1.4-.5.8-.8 1.2-1.3l.9-.9c.8-.9 1.3-2 1.3-3.1 0-1.2-.5-2.2-1.4-3.1l-3.7-3.8zm1.1 7.4c-.2.3-.5.5-.8.8-.5.4-1 .9-1.4 1.5-.5.5-1 .7-1.9.8h-.3c-1.9-.1-3.7-.9-5.1-1.6-3.8-1.9-7.2-4.5-10-7.8-2.3-2.8-3.9-5.4-4.9-8.1-.5-1.4-.8-2.5-.8-3.5v-.5c.1-.7.3-1.1.7-1.5l2.4-2.4c.2-.2.3-.2.4-.2 0 0 .2.1.3.2l1.2 1.2.7.7 1.9 1.9c.3.3.3.4.3.4s0 .1-.3.4l-.6.6-1.7 1.7-.1.1c-.5.5-.7 1.2-.7 1.7 0 .3.1.6.2.9v.1c.6 1.3 1.3 2.6 2.4 4l.2.2c1.8 2.3 3.9 4.2 6.2 5.7.3.2.7.4 1 .5.2.1.5.2.6.3h.1c.4.2.8.3 1.2.3 1 0 1.6-.6 1.8-.8l2.4-2.4c.1-.2.4-.2.4-.2s.2.1.3.2l3.9 3.9c.2.2.2.4.3.4-.1.1-.1.3-.3.5zM28.9 24.3l.2-1-.2 1c1.6.3 3.1 1 4.3 2.2 1.2 1.2 2 2.7 2.2 4.3.2.9 1 1.6 1.9 1.6h.2c1-.2 1.7-1 1.7-1.9v-.2c-.4-2.6-1.6-4.8-3.3-6.5-1.7-1.7-4-2.9-6.4-3.3h-.3c-.9 0-1.7.7-1.9 1.6v.3c0 .9.7 1.8 1.6 1.9zm16.4 5.8h-1l1-.2c-.7-3.8-2.5-7.4-5.3-10.2-2.8-2.8-6.3-4.6-10.2-5.3h-.3c-.9 0-1.7.7-1.9 1.6v.3c0 .9.7 1.7 1.6 1.9 3.1.5 5.9 2 8.1 4.2 2.2 2.2 3.7 5 4.2 8.1.2.9 1 1.6 1.9 1.6h.2c1-.2 1.7-1 1.7-1.9v-.1z"/><path class="st0" d="M27.7.1L0 16.1V48l27.7 16 27.7-16V16.1L27.7.1zm23.2 45.4L27.7 58.9 4.5 45.5V18.6L27.7 5.2l23.2 13.4v26.9z"/></svg>