<?xml version="1.0" encoding="utf-8"?>
<!-- Generator: Adobe Illustrator 22.0.0, SVG Export Plug-In . SVG Version: 6.00 Build 0)  -->
<svg version="1.2" baseProfile="tiny" id="Layer_1" xmlns="http://www.w3.org/2000/svg" xmlns:xlink="http://www.w3.org/1999/xlink"
	 x="0px" y="0px" viewBox="0 0 55.3 63.9" xml:space="preserve">
<title>Untitled-1</title>
<g>
	<path fill="#282829" d="M27.7,0L0,16v31.9l27.7,16l27.7-16V16L27.7,0z M51.2,45.5L27.7,59.1L4.1,45.5V18.4L27.7,4.8l23.5,13.6V45.5
		z"/>
	<path fill="#282829" d="M21.2,33.3c-0.5-0.5-1.3-0.9-2.1-0.9c0,0,0,0,0,0c0,0,0,0-0.1,0h-4.4c0,0,0,0,0,0c-0.8,0-1.5,0.3-2.1,0.9
		c-0.6,0.5-0.9,1.3-0.9,2.1c0,0,0,0.1,0,0.1l0,7.6c0,1.6,1.3,3,3,3h4.5c0.8,0,1.5-0.3,2.1-0.9c0.5-0.5,0.8-1.2,0.9-1.9h0v-7.9l0,0
		C22,34.6,21.7,33.9,21.2,33.3z M19.3,43.1c0,0.1-0.1,0.2-0.2,0.2h-4.4c-0.1,0-0.2-0.1-0.2-0.2v-7.7c0-0.1,0.1-0.2,0.2-0.2h4.4
		c0.1,0,0.2,0.1,0.2,0.2V43.1z M32,23.7c-0.6-0.6-1.3-0.9-2.1-0.9h-4.4c-0.8,0-1.5,0.3-2.1,0.9c-0.5,0.5-0.9,1.3-0.9,2
		c0,0,0,0.1,0,0.1l0,17.1c0,0,0,0,0,0.1c0,0.8,0.3,1.5,0.9,2.1c0.5,0.6,1.3,0.9,2.1,0.9h4.5c1.6,0,2.9-1.3,3-3V25.8l0,0
		C32.8,25,32.5,24.3,32,23.7z M30.1,43.1c0,0.1-0.1,0.2-0.2,0.2h-4.4c-0.1,0-0.2-0.1-0.2-0.2V25.8c0-0.1,0.1-0.2,0.2-0.2h4.4
		c0.1,0,0.2,0.1,0.2,0.2V43.1z M43.6,20.7c0-0.8-0.3-1.5-0.9-2.1l0,0c-0.5-0.6-1.3-0.9-2.1-0.9h-4.5c0,0,0,0,0,0
		c-0.8,0-1.5,0.3-2.1,0.9c-0.5,0.5-0.9,1.3-0.9,2c0,0,0,0,0,0.1l0,22.2c0,0,0,0,0,0.1c0,0.8,0.3,1.5,0.9,2.1
		c0.6,0.5,1.3,0.9,2.1,0.9h4.5c1.6,0,3-1.3,3-3L43.6,20.7L43.6,20.7z M40.8,43.1c0,0.1-0.1,0.2-0.2,0.2h-4.4c-0.1,0-0.2-0.1-0.2-0.2
		V20.8c0-0.1,0.1-0.2,0.2-0.2h4.4c0.1,0,0.2,0.1,0.2,0.2V43.1z"/>
</g>
</svg>
