<?xml version="1.0" encoding="utf-8"?>
<!-- Generator: Adobe Illustrator 22.0.0, SVG Export Plug-In . SVG Version: 6.00 Build 0)  -->
<svg version="1.2" baseProfile="tiny" id="Layer_1" xmlns="http://www.w3.org/2000/svg" xmlns:xlink="http://www.w3.org/1999/xlink"
	 x="0px" y="0px" viewBox="0 0 140 35" xml:space="preserve">
<g display="none">
	<g display="inline">
		<linearGradient id="SVGID_1_" gradientUnits="userSpaceOnUse" x1="0" y1="22.4004" x2="103.375" y2="22.4004">
			<stop  offset="0" style="stop-color:#4558DC"/>
			<stop  offset="0.3364" style="stop-color:#6163E2"/>
			<stop  offset="1" style="stop-color:#A27CF0"/>
		</linearGradient>
		<path fill="url(#SVGID_1_)" d="M7.7,15.4c0.9,0,1.6,0.1,2.3,0.3s1.3,0.5,1.7,0.9c0.5,0.4,0.8,0.9,1.1,1.5c0.3,0.6,0.4,1.3,0.4,2
			c0,0.8-0.1,1.5-0.4,2.1c-0.3,0.6-0.6,1.1-1.1,1.5s-1.1,0.7-1.7,0.9c-0.7,0.2-1.4,0.3-2.3,0.3H5.1v4.1c0,0.1-0.1,0.3-0.2,0.4
			c-0.1,0.1-0.2,0.2-0.4,0.2H1.9c-0.1,0-0.3-0.1-0.4-0.2c-0.1-0.1-0.2-0.2-0.2-0.4V15.9c0-0.1,0.1-0.3,0.2-0.4
			c0.1-0.1,0.2-0.2,0.4-0.2H7.7z M5.1,21.7h2.5c0.6,0,1-0.1,1.4-0.4c0.4-0.2,0.5-0.7,0.5-1.2c0-0.6-0.2-1-0.5-1.2
			c-0.4-0.2-0.8-0.4-1.4-0.4H5.1V21.7z"/>
		<linearGradient id="SVGID_2_" gradientUnits="userSpaceOnUse" x1="0" y1="22.4004" x2="103.375" y2="22.4004">
			<stop  offset="0" style="stop-color:#4558DC"/>
			<stop  offset="0.3364" style="stop-color:#6163E2"/>
			<stop  offset="1" style="stop-color:#A27CF0"/>
		</linearGradient>
		<path fill="url(#SVGID_2_)" d="M21.1,15.4c0.9,0,1.7,0.1,2.4,0.3c0.7,0.2,1.3,0.5,1.8,0.8c0.5,0.4,0.9,0.9,1.1,1.4
			c0.3,0.6,0.4,1.3,0.4,2c0,1-0.2,1.8-0.6,2.5s-1,1.2-1.8,1.5l2.5,4.8c0,0.1,0.1,0.2,0.1,0.2c0,0.1,0,0.2-0.1,0.3
			c-0.1,0.1-0.2,0.1-0.3,0.1h-2.7c-0.3,0-0.5-0.1-0.6-0.2c-0.1-0.1-0.2-0.2-0.3-0.4l-2.2-4.3h-1.8v4.3c0,0.1-0.1,0.3-0.2,0.4
			c-0.1,0.1-0.2,0.2-0.4,0.2h-2.6c-0.1,0-0.3-0.1-0.4-0.2c-0.1-0.1-0.2-0.2-0.2-0.4V15.9c0-0.1,0.1-0.3,0.2-0.4
			c0.1-0.1,0.2-0.2,0.4-0.2H21.1z M18.8,21.5h2.3c0.6,0,1-0.1,1.4-0.3S23,20.5,23,20s-0.2-0.9-0.5-1.2s-0.8-0.3-1.4-0.3h-2.3V21.5z"
			/>
		<linearGradient id="SVGID_3_" gradientUnits="userSpaceOnUse" x1="0" y1="22.4004" x2="103.375" y2="22.4004">
			<stop  offset="0" style="stop-color:#4558DC"/>
			<stop  offset="0.3364" style="stop-color:#6163E2"/>
			<stop  offset="1" style="stop-color:#A27CF0"/>
		</linearGradient>
		<path fill="url(#SVGID_3_)" d="M36.3,15.4c0.3,0,0.5,0.1,0.6,0.2c0.1,0.1,0.2,0.3,0.3,0.4l4.4,12.6c0.1,0.1,0.1,0.2,0.1,0.3
			c0,0.1,0,0.2-0.1,0.3c-0.1,0.1-0.2,0.1-0.3,0.1h-2.5c-0.3,0-0.5-0.1-0.6-0.2s-0.2-0.2-0.2-0.3l-0.6-1.7H32l-0.6,1.7
			c0,0.1-0.1,0.2-0.2,0.3s-0.3,0.2-0.6,0.2h-2.5c-0.1,0-0.2,0-0.3-0.1c-0.1-0.1-0.1-0.2-0.1-0.3c0-0.1,0-0.2,0.1-0.3l4.4-12.6
			c0.1-0.1,0.1-0.3,0.3-0.4c0.1-0.1,0.3-0.2,0.6-0.2H36.3z M33.1,24.1h3.2l-1.6-4.8L33.1,24.1z"/>
		<linearGradient id="SVGID_4_" gradientUnits="userSpaceOnUse" x1="0" y1="22.4004" x2="103.375" y2="22.4004">
			<stop  offset="0" style="stop-color:#4558DC"/>
			<stop  offset="0.3364" style="stop-color:#6163E2"/>
			<stop  offset="1" style="stop-color:#A27CF0"/>
		</linearGradient>
		<path fill="url(#SVGID_4_)" d="M52.2,15.4c0.1,0,0.3,0.1,0.4,0.2c0.1,0.1,0.2,0.2,0.2,0.4v2.1c0,0.1-0.1,0.3-0.2,0.4
			c-0.1,0.1-0.2,0.2-0.4,0.2h-3.5v10.3c0,0.1-0.1,0.3-0.2,0.4c-0.1,0.1-0.2,0.2-0.4,0.2h-2.6c-0.1,0-0.3-0.1-0.4-0.2
			c-0.1-0.1-0.2-0.2-0.2-0.4V18.6h-3.5c-0.1,0-0.3-0.1-0.4-0.2c-0.1-0.1-0.2-0.2-0.2-0.4v-2.1c0-0.1,0.1-0.3,0.2-0.4
			c0.1-0.1,0.2-0.2,0.4-0.2H52.2z"/>
		<linearGradient id="SVGID_5_" gradientUnits="userSpaceOnUse" x1="0" y1="22.4004" x2="103.375" y2="22.4004">
			<stop  offset="0" style="stop-color:#4558DC"/>
			<stop  offset="0.3364" style="stop-color:#6163E2"/>
			<stop  offset="1" style="stop-color:#A27CF0"/>
		</linearGradient>
		<path fill="url(#SVGID_5_)" d="M64.5,26.2c0.1,0,0.3,0.1,0.4,0.2c0.1,0.1,0.2,0.2,0.2,0.4v2.1c0,0.1-0.1,0.3-0.2,0.4
			c-0.1,0.1-0.2,0.2-0.4,0.2H55c-0.1,0-0.3-0.1-0.4-0.2c-0.1-0.1-0.2-0.2-0.2-0.4V15.9c0-0.1,0.1-0.3,0.2-0.4
			c0.1-0.1,0.2-0.2,0.4-0.2h9.3c0.1,0,0.3,0.1,0.4,0.2c0.1,0.1,0.2,0.2,0.2,0.4v2.1c0,0.1-0.1,0.3-0.2,0.4c-0.1,0.1-0.2,0.2-0.4,0.2
			h-6.2v2.2h5.7c0.1,0,0.3,0.1,0.4,0.2c0.1,0.1,0.2,0.2,0.2,0.4v2.1c0,0.1-0.1,0.3-0.2,0.4c-0.1,0.1-0.2,0.2-0.4,0.2h-5.7v2.2H64.5z
			"/>
		<linearGradient id="SVGID_6_" gradientUnits="userSpaceOnUse" x1="0" y1="22.4004" x2="103.375" y2="22.4004">
			<stop  offset="0" style="stop-color:#4558DC"/>
			<stop  offset="0.3364" style="stop-color:#6163E2"/>
			<stop  offset="1" style="stop-color:#A27CF0"/>
		</linearGradient>
		<path fill="url(#SVGID_6_)" d="M77.4,26.2c0.1,0,0.3,0.1,0.4,0.2c0.1,0.1,0.2,0.2,0.2,0.4v2.1c0,0.1-0.1,0.3-0.2,0.4
			c-0.1,0.1-0.2,0.2-0.4,0.2h-9.5c-0.1,0-0.3-0.1-0.4-0.2c-0.1-0.1-0.2-0.2-0.2-0.4V15.9c0-0.1,0.1-0.3,0.2-0.4
			c0.1-0.1,0.2-0.2,0.4-0.2h9.3c0.1,0,0.3,0.1,0.4,0.2c0.1,0.1,0.2,0.2,0.2,0.4v2.1c0,0.1-0.1,0.3-0.2,0.4c-0.1,0.1-0.2,0.2-0.4,0.2
			h-6.2v2.2h5.7c0.1,0,0.3,0.1,0.4,0.2c0.1,0.1,0.2,0.2,0.2,0.4v2.1c0,0.1-0.1,0.3-0.2,0.4c-0.1,0.1-0.2,0.2-0.4,0.2h-5.7v2.2H77.4z
			"/>
		<linearGradient id="SVGID_7_" gradientUnits="userSpaceOnUse" x1="0" y1="22.4004" x2="103.375" y2="22.4004">
			<stop  offset="0" style="stop-color:#4558DC"/>
			<stop  offset="0.3364" style="stop-color:#6163E2"/>
			<stop  offset="1" style="stop-color:#A27CF0"/>
		</linearGradient>
		<path fill="url(#SVGID_7_)" d="M92.1,28.7c0,0.1,0.1,0.1,0.1,0.2c0,0.1,0,0.2-0.1,0.3c-0.1,0.1-0.2,0.1-0.3,0.1h-3.2
			c-0.2,0-0.3,0-0.5-0.1c-0.1-0.1-0.2-0.2-0.4-0.3l-3.8-4.8v4.7c0,0.1-0.1,0.3-0.2,0.4c-0.1,0.1-0.2,0.2-0.4,0.2h-2.6
			c-0.1,0-0.3-0.1-0.4-0.2c-0.1-0.1-0.2-0.2-0.2-0.4V15.9c0-0.1,0.1-0.3,0.2-0.4s0.2-0.2,0.4-0.2h2.6c0.1,0,0.3,0.1,0.4,0.2
			c0.1,0.1,0.2,0.2,0.2,0.4v4.2l3.5-4.3c0.1-0.1,0.2-0.2,0.3-0.3c0.1-0.1,0.3-0.2,0.5-0.2h3.1c0.1,0,0.2,0,0.3,0.1
			c0.1,0.1,0.1,0.2,0.1,0.3c0,0.1,0,0.2-0.1,0.2l-4.9,6L92.1,28.7z"/>
	</g>
	<text transform="matrix(1 0 0 1 0 29.4004)" display="inline" font-family="'Rubik-Bold'" font-size="20px">P</text>
	<text transform="matrix(1 0 0 1 13.7197 29.4004)" display="inline" font-family="'Rubik-Bold'" font-size="20px">R</text>
	<text transform="matrix(1 0 0 1 27.52 29.4004)" display="inline" font-family="'Rubik-Bold'" font-size="20px">A</text>
	<text transform="matrix(1 0 0 1 40.48 29.4004)" display="inline" font-family="'Rubik-Bold'" font-size="20px">T</text>
	<text transform="matrix(1 0 0 1 53.0996 29.4004)" display="inline" font-family="'Rubik-Bold'" font-size="20px">E</text>
	<text transform="matrix(1 0 0 1 65.9595 29.4004)" display="inline" font-family="'Rubik-Bold'" font-size="20px">E</text>
	<text transform="matrix(1 0 0 1 78.8188 29.4004)" display="inline" font-family="'Rubik-Bold'" font-size="20px">K</text>
</g>
<g id="Layer_2">
</g>
<g>
	<linearGradient id="SVGID_8_" gradientUnits="userSpaceOnUse" x1="132.635" y1="4.4325" x2="139.25" y2="4.4325">
		<stop  offset="0" style="stop-color:#4558DC"/>
		<stop  offset="1" style="stop-color:#A27CF0"/>
	</linearGradient>
	<circle fill="url(#SVGID_8_)" cx="135.9" cy="4.4" r="3.3"/>
	<linearGradient id="SVGID_9_" gradientUnits="userSpaceOnUse" x1="132.635" y1="4.4325" x2="139.25" y2="4.4325">
		<stop  offset="0" style="stop-color:#4558DC"/>
		<stop  offset="1" style="stop-color:#A27CF0"/>
	</linearGradient>
	<circle fill="url(#SVGID_9_)" cx="135.9" cy="4.4" r="3.3"/>
	<circle fill="#838BC5" cx="135.9" cy="4.4" r="3.3"/>
</g>
<g>
	<linearGradient id="SVGID_10_" gradientUnits="userSpaceOnUse" x1="0.3833" y1="29.7191" x2="30.689" y2="-7.1058">
		<stop  offset="0" style="stop-color:#4558DC"/>
		<stop  offset="1" style="stop-color:#A27CF0"/>
	</linearGradient>
	<path fill="url(#SVGID_10_)" d="M10.8,12.9c1.2,0,2.3,0.1,3.2,0.4s1.8,0.7,2.5,1.2c0.7,0.6,1.2,1.2,1.6,2.1
		c0.4,0.8,0.5,1.8,0.5,2.9c0,1.1-0.2,2.1-0.5,2.9c-0.4,0.8-0.9,1.5-1.6,2.1c-0.7,0.5-1.5,1-2.5,1.2c-1,0.3-2,0.4-3.2,0.4H7.2v5.8
		c0,0.2-0.1,0.4-0.2,0.5c-0.2,0.2-0.3,0.2-0.5,0.2H2.7c-0.2,0-0.4-0.1-0.5-0.2S2,32,2,31.8V13.6c0-0.2,0.1-0.4,0.2-0.5
		s0.3-0.2,0.5-0.2H10.8z M7.2,21.7h3.5c0.8,0,1.4-0.2,2-0.5c0.5-0.3,0.8-0.9,0.8-1.7c0-0.8-0.3-1.4-0.8-1.7c-0.5-0.3-1.2-0.5-2-0.5
		H7.2V21.7z"/>
	<linearGradient id="SVGID_11_" gradientUnits="userSpaceOnUse" x1="14.3912" y1="41.2471" x2="44.6968" y2="4.4222">
		<stop  offset="0" style="stop-color:#4558DC"/>
		<stop  offset="1" style="stop-color:#A27CF0"/>
	</linearGradient>
	<path fill="url(#SVGID_11_)" d="M29.7,12.9c1.2,0,2.3,0.1,3.3,0.4c1,0.3,1.8,0.7,2.5,1.2c0.7,0.5,1.2,1.2,1.6,2
		c0.4,0.8,0.5,1.8,0.5,2.9c0,1.4-0.3,2.6-0.9,3.5c-0.6,0.9-1.4,1.6-2.5,2.1l3.5,6.7c0.1,0.1,0.1,0.2,0.1,0.3c0,0.2-0.1,0.3-0.2,0.4
		c-0.1,0.1-0.3,0.2-0.4,0.2h-3.8c-0.4,0-0.6-0.1-0.8-0.3c-0.2-0.2-0.3-0.3-0.4-0.5l-3.1-6h-2.6v6c0,0.2-0.1,0.4-0.2,0.5
		c-0.2,0.2-0.3,0.2-0.5,0.2h-3.7c-0.2,0-0.4-0.1-0.5-0.2s-0.2-0.3-0.2-0.5V13.6c0-0.2,0.1-0.4,0.2-0.5s0.3-0.2,0.5-0.2H29.7z
		 M26.5,21.4h3.2c0.8,0,1.4-0.1,2-0.5c0.5-0.3,0.8-0.8,0.8-1.6s-0.3-1.3-0.8-1.6c-0.5-0.3-1.2-0.5-2-0.5h-3.2V21.4z"/>
	<linearGradient id="SVGID_12_" gradientUnits="userSpaceOnUse" x1="27.8447" y1="52.3188" x2="58.1503" y2="15.4939">
		<stop  offset="0" style="stop-color:#4558DC"/>
		<stop  offset="1" style="stop-color:#A27CF0"/>
	</linearGradient>
	<path fill="url(#SVGID_12_)" d="M51.2,12.9c0.4,0,0.7,0.1,0.9,0.3c0.2,0.2,0.3,0.4,0.4,0.6l6.1,17.8c0.1,0.2,0.1,0.3,0.1,0.4
		c0,0.2-0.1,0.3-0.2,0.4c-0.1,0.1-0.3,0.2-0.4,0.2h-3.6c-0.4,0-0.6-0.1-0.8-0.2c-0.2-0.2-0.3-0.3-0.3-0.5l-0.8-2.3h-7.5l-0.8,2.3
		c0,0.2-0.1,0.3-0.3,0.5c-0.2,0.2-0.4,0.2-0.8,0.2h-3.6c-0.2,0-0.3-0.1-0.4-0.2c-0.1-0.1-0.2-0.3-0.2-0.4c0-0.1,0-0.2,0.1-0.4
		l6.1-17.8c0.1-0.2,0.2-0.4,0.4-0.6c0.2-0.2,0.5-0.3,0.9-0.3H51.2z M46.6,25.2h4.6l-2.3-6.8L46.6,25.2z"/>
	<linearGradient id="SVGID_13_" gradientUnits="userSpaceOnUse" x1="34.3364" y1="57.6613" x2="64.6421" y2="20.8364">
		<stop  offset="0" style="stop-color:#4558DC"/>
		<stop  offset="1" style="stop-color:#A27CF0"/>
	</linearGradient>
	<path fill="url(#SVGID_13_)" d="M73.5,12.9c0.2,0,0.4,0.1,0.5,0.2s0.2,0.3,0.2,0.5v3c0,0.2-0.1,0.4-0.2,0.5s-0.3,0.2-0.5,0.2h-5
		v14.5c0,0.2-0.1,0.4-0.2,0.5s-0.3,0.2-0.5,0.2h-3.7c-0.2,0-0.4-0.1-0.5-0.2c-0.2-0.2-0.2-0.3-0.2-0.5V17.4h-5
		c-0.2,0-0.4-0.1-0.5-0.2c-0.2-0.2-0.2-0.3-0.2-0.5v-3c0-0.2,0.1-0.4,0.2-0.5c0.1-0.2,0.3-0.2,0.5-0.2H73.5z"/>
	<linearGradient id="SVGID_14_" gradientUnits="userSpaceOnUse" x1="46.9591" y1="68.0494" x2="77.2648" y2="31.2245">
		<stop  offset="0" style="stop-color:#4558DC"/>
		<stop  offset="1" style="stop-color:#A27CF0"/>
	</linearGradient>
	<path fill="url(#SVGID_14_)" d="M90.9,28.1c0.2,0,0.4,0.1,0.5,0.2s0.2,0.3,0.2,0.5v3c0,0.2-0.1,0.4-0.2,0.5s-0.3,0.2-0.5,0.2H77.6
		c-0.2,0-0.4-0.1-0.5-0.2s-0.2-0.3-0.2-0.5V13.6c0-0.2,0.1-0.4,0.2-0.5s0.3-0.2,0.5-0.2h13.1c0.2,0,0.4,0.1,0.5,0.2s0.2,0.3,0.2,0.5
		v3c0,0.2-0.1,0.4-0.2,0.5s-0.3,0.2-0.5,0.2H82v3h8.1c0.2,0,0.4,0.1,0.5,0.2s0.2,0.3,0.2,0.5v3c0,0.2-0.1,0.4-0.2,0.5
		s-0.3,0.2-0.5,0.2H82v3.2H90.9z"/>
	<linearGradient id="SVGID_15_" gradientUnits="userSpaceOnUse" x1="57.7663" y1="76.9433" x2="88.0719" y2="40.1184">
		<stop  offset="0" style="stop-color:#4558DC"/>
		<stop  offset="1" style="stop-color:#A27CF0"/>
	</linearGradient>
	<path fill="url(#SVGID_15_)" d="M109.1,28.1c0.2,0,0.4,0.1,0.5,0.2s0.2,0.3,0.2,0.5v3c0,0.2-0.1,0.4-0.2,0.5s-0.3,0.2-0.5,0.2H95.7
		c-0.2,0-0.4-0.1-0.5-0.2c-0.2-0.2-0.2-0.3-0.2-0.5V13.6c0-0.2,0.1-0.4,0.2-0.5c0.2-0.2,0.3-0.2,0.5-0.2h13.1c0.2,0,0.4,0.1,0.5,0.2
		s0.2,0.3,0.2,0.5v3c0,0.2-0.1,0.4-0.2,0.5s-0.3,0.2-0.5,0.2h-8.7v3h8.1c0.2,0,0.4,0.1,0.5,0.2s0.2,0.3,0.2,0.5v3
		c0,0.2-0.1,0.4-0.2,0.5s-0.3,0.2-0.5,0.2h-8.1v3.2H109.1z"/>
	<linearGradient id="SVGID_16_" gradientUnits="userSpaceOnUse" x1="69.1676" y1="86.3262" x2="99.4732" y2="49.5013">
		<stop  offset="0" style="stop-color:#4558DC"/>
		<stop  offset="1" style="stop-color:#A27CF0"/>
	</linearGradient>
	<path fill="url(#SVGID_16_)" d="M129.8,31.7c0.1,0.1,0.1,0.2,0.1,0.3c0,0.2-0.1,0.3-0.2,0.4c-0.1,0.1-0.3,0.2-0.4,0.2h-4.5
		c-0.3,0-0.5-0.1-0.6-0.2c-0.2-0.1-0.3-0.3-0.5-0.5l-5.3-6.7v6.6c0,0.2-0.1,0.4-0.2,0.5s-0.3,0.2-0.5,0.2h-3.7
		c-0.2,0-0.4-0.1-0.5-0.2c-0.2-0.2-0.2-0.3-0.2-0.5V13.6c0-0.2,0.1-0.4,0.2-0.5c0.2-0.2,0.3-0.2,0.5-0.2h3.7c0.2,0,0.4,0.1,0.5,0.2
		s0.2,0.3,0.2,0.5v5.9l5-6.1c0.1-0.1,0.2-0.2,0.4-0.4s0.4-0.2,0.8-0.2h4.4c0.2,0,0.3,0.1,0.4,0.2c0.1,0.1,0.2,0.3,0.2,0.4
		c0,0.1,0,0.2-0.1,0.3l-7,8.5L129.8,31.7z"/>
</g>
</svg>
